# xmcd
# 
# Track frame offsets:
#     150
#     30385
#     74047
#     98947
#     114970
#     163477
#     184285
#     201875
#     217342
#     234317
#     254675
#     281232
#     319750
# 
# Disc length: 4495
# 
# Revision: 5
# Processed by: cddbd v1.5.2PL0 Copyright (c) Steve Scherf et al.
# Submitted via: BonkEnc v1.0.8
# 
DISCID=d1118d0d
DTITLE=Various Artist - SWF-Bluesfestival 1981-1991 [CD 3)
DYEAR=2004
DGENRE=Blues
TTITLE0=Louisiana Red and Das Dritte Ohr - Sleep On, Muddy Waters
TTITLE1=Gyula "Bill" Deak and Projekt "Blueeast" - Red House
TTITLE2=Big Jay McNeely's Saxomania - Nighttrain
TTITLE3=Big Jay McNeely's Saxomania - Honky Tonk
TTITLE4="Maestro" Sanders and The Chicago Bad Boys - How Blue Can You Get
TTITLE5=Carrie Smith and The Barrelhouse Jazzband - Please Send Me Someone To Love
TTITLE6=Carrie Smith and The Barrelhouse Jazzband - Down Hearted Blues
TTITLE7=Jerry Portnoy and Ronny Earl And The Broadcasters - Jerry Jumps In
TTITLE8=Joy Fleming Rhythm and Blues Band - Ich sing fürs Finanzamt
TTITLE9=Joy Fleming Rhythm and Blues Band - Neckarbrückenblues
TTITLE10=Jean Shy and Frankfurt City Blues Band - Boogie Woogie Bugle Boy
TTITLE11=Eddie Clearwater and Das Dritte Ohr - I'm Stranded
TTITLE12=Eddie Clearwater and Das Dritte Ohr - Find You A Job
EXTD=
EXTT0=
EXTT1=
EXTT2=
EXTT3=
EXTT4=
EXTT5=
EXTT6=
EXTT7=
EXTT8=
EXTT9=
EXTT10=
EXTT11=
EXTT12=
PLAYORDER=
